<svg width="16" height="16" viewBox="0 0 16 16" fill="none" xmlns="http://www.w3.org/2000/svg">
<mask id="path-1-inside-1_36_27" fill="white">
<path d="M15.7983 14.3185L11.2077 9.89044C12.1127 8.84426 12.657 7.5073 12.657 6.04708C12.657 2.71574 9.82068 0.00704956 6.3318 0.00704956C2.84291 0.00704956 0 2.7189 0 6.05024C0 9.38158 2.83636 12.0903 6.32524 12.0903C7.80736 12.0903 9.17143 11.6004 10.2535 10.7818L14.8605 15.2225C15.1294 15.4817 15.5295 15.4817 15.7983 15.2225C16.0672 14.9633 16.0672 14.5777 15.7983 14.3185ZM1.3444 6.05024C1.3444 3.43321 3.58069 1.30608 6.32524 1.30608C9.06978 1.30608 11.3061 3.43321 11.3061 6.05024C11.3061 8.66727 9.06978 10.7944 6.32524 10.7944C3.58069 10.7944 1.3444 8.66411 1.3444 6.05024Z"/>
</mask>
<path d="M15.7983 14.3185L11.2077 9.89044C12.1127 8.84426 12.657 7.5073 12.657 6.04708C12.657 2.71574 9.82068 0.00704956 6.3318 0.00704956C2.84291 0.00704956 0 2.7189 0 6.05024C0 9.38158 2.83636 12.0903 6.32524 12.0903C7.80736 12.0903 9.17143 11.6004 10.2535 10.7818L14.8605 15.2225C15.1294 15.4817 15.5295 15.4817 15.7983 15.2225C16.0672 14.9633 16.0672 14.5777 15.7983 14.3185ZM1.3444 6.05024C1.3444 3.43321 3.58069 1.30608 6.32524 1.30608C9.06978 1.30608 11.3061 3.43321 11.3061 6.05024C11.3061 8.66727 9.06978 10.7944 6.32524 10.7944C3.58069 10.7944 1.3444 8.66411 1.3444 6.05024Z" fill="black" fill-opacity="0.8"/>
<path d="M15.7983 14.3185L14.4098 15.758L14.4104 15.7585L15.7983 14.3185ZM11.2077 9.89044L9.69513 8.58197L8.45572 10.0147L9.81921 11.3299L11.2077 9.89044ZM10.2535 10.7818L11.6415 9.34179L10.4105 8.15518L9.04687 9.18676L10.2535 10.7818ZM17.1868 12.8791L12.5962 8.45098L9.81921 11.3299L14.4098 15.758L17.1868 12.8791ZM12.7203 11.1989C13.9193 9.81286 14.657 8.01812 14.657 6.04708H10.657C10.657 6.99649 10.3061 7.87567 9.69513 8.58197L12.7203 11.1989ZM14.657 6.04708C14.657 1.52526 10.8373 -1.99295 6.3318 -1.99295V2.00705C8.80402 2.00705 10.657 3.90622 10.657 6.04708H14.657ZM6.3318 -1.99295C1.82762 -1.99295 -2 1.52711 -2 6.05024H2C2 3.91068 3.8582 2.00705 6.3318 2.00705V-1.99295ZM-2 6.05024C-2 10.5721 1.8197 14.0903 6.32524 14.0903V10.0903C3.85301 10.0903 2 8.1911 2 6.05024H-2ZM6.32524 14.0903C8.25341 14.0903 10.0391 13.4518 11.4602 12.3767L9.04687 9.18676C8.30373 9.74896 7.3613 10.0903 6.32524 10.0903V14.0903ZM8.86552 12.2217L13.4726 16.6624L16.2485 13.7825L11.6415 9.34179L8.86552 12.2217ZM13.4726 16.6624C14.5161 17.6683 16.1428 17.6683 17.1863 16.6624L14.4104 13.7825C14.9162 13.295 15.7427 13.295 16.2485 13.7825L13.4726 16.6624ZM17.1863 16.6624C18.2712 15.6167 18.2712 13.9243 17.1863 12.8786L14.4104 15.7585C14.1777 15.5343 14 15.185 14 14.7705C14 14.356 14.1777 14.0067 14.4104 13.7825L17.1863 16.6624ZM3.3444 6.05024C3.3444 4.62919 4.59158 3.30608 6.32524 3.30608V-0.693918C2.56981 -0.693918 -0.6556 2.23722 -0.6556 6.05024H3.3444ZM6.32524 3.30608C8.0589 3.30608 9.30608 4.62919 9.30608 6.05024H13.3061C13.3061 2.23722 10.0807 -0.693918 6.32524 -0.693918V3.30608ZM9.30608 6.05024C9.30608 7.47128 8.0589 8.79439 6.32524 8.79439V12.7944C10.0807 12.7944 13.3061 9.86325 13.3061 6.05024H9.30608ZM6.32524 8.79439C4.59246 8.79439 3.3444 7.46897 3.3444 6.05024H-0.6556C-0.6556 9.85925 2.56892 12.7944 6.32524 12.7944V8.79439Z" fill="black" fill-opacity="0.8" mask="url(#path-1-inside-1_36_27)"/>
</svg>
